<mxfile host="Electron" agent="Mozilla/5.0 (Windows NT 10.0; Win64; x64) AppleWebKit/537.36 (KHTML, like Gecko) draw.io/25.0.1 Chrome/128.0.6613.186 Electron/32.2.6 Safari/537.36" version="25.0.1">
  <diagram id="C5RBs43oDa-KdzZeNtuy" name="Page-1">
    <mxGraphModel dx="1698" dy="1064" grid="1" gridSize="10" guides="1" tooltips="1" connect="1" arrows="1" fold="1" page="1" pageScale="1" pageWidth="827" pageHeight="1169" math="0" shadow="0">
      <root>
        <mxCell id="WIyWlLk6GJQsqaUBKTNV-0" />
        <mxCell id="WIyWlLk6GJQsqaUBKTNV-1" parent="WIyWlLk6GJQsqaUBKTNV-0" />
        <mxCell id="2vWn9LsCLtXttcwdHyVa-6" value="" style="edgeStyle=orthogonalEdgeStyle;rounded=0;orthogonalLoop=1;jettySize=auto;html=1;" edge="1" parent="WIyWlLk6GJQsqaUBKTNV-1" target="2vWn9LsCLtXttcwdHyVa-2">
          <mxGeometry relative="1" as="geometry">
            <mxPoint x="300" y="260" as="sourcePoint" />
          </mxGeometry>
        </mxCell>
        <mxCell id="2vWn9LsCLtXttcwdHyVa-4" value="" style="edgeStyle=orthogonalEdgeStyle;rounded=0;orthogonalLoop=1;jettySize=auto;html=1;" edge="1" parent="WIyWlLk6GJQsqaUBKTNV-1" source="2vWn9LsCLtXttcwdHyVa-1">
          <mxGeometry relative="1" as="geometry">
            <mxPoint x="300" y="200" as="targetPoint" />
          </mxGeometry>
        </mxCell>
        <mxCell id="2vWn9LsCLtXttcwdHyVa-1" value="Start" style="ellipse;whiteSpace=wrap;html=1;" vertex="1" parent="WIyWlLk6GJQsqaUBKTNV-1">
          <mxGeometry x="240" y="80" width="120" height="80" as="geometry" />
        </mxCell>
        <mxCell id="2vWn9LsCLtXttcwdHyVa-7" value="" style="edgeStyle=orthogonalEdgeStyle;rounded=0;orthogonalLoop=1;jettySize=auto;html=1;" edge="1" parent="WIyWlLk6GJQsqaUBKTNV-1" source="2vWn9LsCLtXttcwdHyVa-2" target="2vWn9LsCLtXttcwdHyVa-5">
          <mxGeometry relative="1" as="geometry" />
        </mxCell>
        <mxCell id="2vWn9LsCLtXttcwdHyVa-2" value="Nhập mật khẩu" style="shape=parallelogram;perimeter=parallelogramPerimeter;whiteSpace=wrap;html=1;fixedSize=1;" vertex="1" parent="WIyWlLk6GJQsqaUBKTNV-1">
          <mxGeometry x="240" y="320" width="120" height="60" as="geometry" />
        </mxCell>
        <mxCell id="2vWn9LsCLtXttcwdHyVa-19" value="" style="edgeStyle=orthogonalEdgeStyle;rounded=0;orthogonalLoop=1;jettySize=auto;html=1;" edge="1" parent="WIyWlLk6GJQsqaUBKTNV-1" source="2vWn9LsCLtXttcwdHyVa-5" target="2vWn9LsCLtXttcwdHyVa-18">
          <mxGeometry relative="1" as="geometry" />
        </mxCell>
        <mxCell id="2vWn9LsCLtXttcwdHyVa-5" value="PASSWORD.len() = input.len()&amp;nbsp;" style="rhombus;whiteSpace=wrap;html=1;" vertex="1" parent="WIyWlLk6GJQsqaUBKTNV-1">
          <mxGeometry x="240" y="440" width="120" height="80" as="geometry" />
        </mxCell>
        <mxCell id="2vWn9LsCLtXttcwdHyVa-11" value="Khởi tạo mật khẩu" style="whiteSpace=wrap;html=1;" vertex="1" parent="WIyWlLk6GJQsqaUBKTNV-1">
          <mxGeometry x="240" y="200" width="120" height="60" as="geometry" />
        </mxCell>
        <mxCell id="2vWn9LsCLtXttcwdHyVa-17" value="Sai" style="text;html=1;align=center;verticalAlign=middle;whiteSpace=wrap;rounded=0;" vertex="1" parent="WIyWlLk6GJQsqaUBKTNV-1">
          <mxGeometry x="360" y="450" width="60" height="30" as="geometry" />
        </mxCell>
        <mxCell id="2vWn9LsCLtXttcwdHyVa-25" value="" style="edgeStyle=orthogonalEdgeStyle;rounded=0;orthogonalLoop=1;jettySize=auto;html=1;" edge="1" parent="WIyWlLk6GJQsqaUBKTNV-1" source="2vWn9LsCLtXttcwdHyVa-18" target="2vWn9LsCLtXttcwdHyVa-21">
          <mxGeometry relative="1" as="geometry" />
        </mxCell>
        <mxCell id="2vWn9LsCLtXttcwdHyVa-18" value="Khởi tạo mảng check và biến ok" style="rounded=0;whiteSpace=wrap;html=1;" vertex="1" parent="WIyWlLk6GJQsqaUBKTNV-1">
          <mxGeometry x="240" y="570" width="120" height="60" as="geometry" />
        </mxCell>
        <mxCell id="2vWn9LsCLtXttcwdHyVa-20" value="Đúng" style="text;html=1;align=center;verticalAlign=middle;whiteSpace=wrap;rounded=0;" vertex="1" parent="WIyWlLk6GJQsqaUBKTNV-1">
          <mxGeometry x="240" y="520" width="60" height="30" as="geometry" />
        </mxCell>
        <mxCell id="2vWn9LsCLtXttcwdHyVa-53" value="" style="edgeStyle=orthogonalEdgeStyle;rounded=0;orthogonalLoop=1;jettySize=auto;html=1;" edge="1" parent="WIyWlLk6GJQsqaUBKTNV-1" source="2vWn9LsCLtXttcwdHyVa-21" target="2vWn9LsCLtXttcwdHyVa-52">
          <mxGeometry relative="1" as="geometry" />
        </mxCell>
        <mxCell id="2vWn9LsCLtXttcwdHyVa-21" value="ok = 0" style="rounded=0;whiteSpace=wrap;html=1;" vertex="1" parent="WIyWlLk6GJQsqaUBKTNV-1">
          <mxGeometry x="240" y="710" width="120" height="60" as="geometry" />
        </mxCell>
        <mxCell id="2vWn9LsCLtXttcwdHyVa-31" value="" style="endArrow=classic;html=1;rounded=0;entryX=0.5;entryY=1;entryDx=0;entryDy=0;exitX=0;exitY=1;exitDx=0;exitDy=0;" edge="1" parent="WIyWlLk6GJQsqaUBKTNV-1" source="2vWn9LsCLtXttcwdHyVa-17">
          <mxGeometry width="50" height="50" relative="1" as="geometry">
            <mxPoint x="490" y="620" as="sourcePoint" />
            <mxPoint x="480" y="380" as="targetPoint" />
            <Array as="points">
              <mxPoint x="480" y="480" />
            </Array>
          </mxGeometry>
        </mxCell>
        <mxCell id="2vWn9LsCLtXttcwdHyVa-32" value="" style="endArrow=none;html=1;rounded=0;exitX=0.5;exitY=0;exitDx=0;exitDy=0;" edge="1" parent="WIyWlLk6GJQsqaUBKTNV-1">
          <mxGeometry width="50" height="50" relative="1" as="geometry">
            <mxPoint x="480" y="320" as="sourcePoint" />
            <mxPoint x="300" y="280" as="targetPoint" />
            <Array as="points">
              <mxPoint x="480" y="280" />
            </Array>
          </mxGeometry>
        </mxCell>
        <mxCell id="2vWn9LsCLtXttcwdHyVa-70" value="" style="rounded=0;orthogonalLoop=1;jettySize=auto;html=1;movable=1;resizable=1;rotatable=1;deletable=1;editable=1;locked=0;connectable=1;endArrow=none;endFill=0;exitX=0.5;exitY=0;exitDx=0;exitDy=0;" edge="1" parent="WIyWlLk6GJQsqaUBKTNV-1" source="2vWn9LsCLtXttcwdHyVa-34">
          <mxGeometry relative="1" as="geometry">
            <mxPoint x="750" y="804.4186046511627" as="sourcePoint" />
            <mxPoint x="300" y="800" as="targetPoint" />
            <Array as="points">
              <mxPoint x="660" y="800" />
            </Array>
          </mxGeometry>
        </mxCell>
        <mxCell id="2vWn9LsCLtXttcwdHyVa-34" value="i = i+1" style="rounded=0;whiteSpace=wrap;html=1;" vertex="1" parent="WIyWlLk6GJQsqaUBKTNV-1">
          <mxGeometry x="600" y="840" width="120" height="60" as="geometry" />
        </mxCell>
        <mxCell id="2vWn9LsCLtXttcwdHyVa-49" value="Sai mật khẩu" style="shape=parallelogram;perimeter=parallelogramPerimeter;whiteSpace=wrap;html=1;fixedSize=1;" vertex="1" parent="WIyWlLk6GJQsqaUBKTNV-1">
          <mxGeometry x="414" y="320" width="120" height="60" as="geometry" />
        </mxCell>
        <mxCell id="2vWn9LsCLtXttcwdHyVa-56" value="" style="edgeStyle=orthogonalEdgeStyle;rounded=0;orthogonalLoop=1;jettySize=auto;html=1;" edge="1" parent="WIyWlLk6GJQsqaUBKTNV-1" source="2vWn9LsCLtXttcwdHyVa-50" target="2vWn9LsCLtXttcwdHyVa-55">
          <mxGeometry relative="1" as="geometry" />
        </mxCell>
        <mxCell id="2vWn9LsCLtXttcwdHyVa-50" value="check[i] = (PASSWORD[i] = input[i]" style="rounded=0;whiteSpace=wrap;html=1;" vertex="1" parent="WIyWlLk6GJQsqaUBKTNV-1">
          <mxGeometry x="240" y="960" width="120" height="60" as="geometry" />
        </mxCell>
        <mxCell id="2vWn9LsCLtXttcwdHyVa-54" value="" style="edgeStyle=orthogonalEdgeStyle;rounded=0;orthogonalLoop=1;jettySize=auto;html=1;" edge="1" parent="WIyWlLk6GJQsqaUBKTNV-1" source="2vWn9LsCLtXttcwdHyVa-52" target="2vWn9LsCLtXttcwdHyVa-50">
          <mxGeometry relative="1" as="geometry" />
        </mxCell>
        <mxCell id="2vWn9LsCLtXttcwdHyVa-52" value="i = 0" style="rounded=0;whiteSpace=wrap;html=1;" vertex="1" parent="WIyWlLk6GJQsqaUBKTNV-1">
          <mxGeometry x="240" y="840" width="120" height="60" as="geometry" />
        </mxCell>
        <mxCell id="2vWn9LsCLtXttcwdHyVa-58" value="" style="edgeStyle=orthogonalEdgeStyle;rounded=0;orthogonalLoop=1;jettySize=auto;html=1;" edge="1" parent="WIyWlLk6GJQsqaUBKTNV-1" source="2vWn9LsCLtXttcwdHyVa-55">
          <mxGeometry relative="1" as="geometry">
            <mxPoint x="474" y="900" as="targetPoint" />
          </mxGeometry>
        </mxCell>
        <mxCell id="2vWn9LsCLtXttcwdHyVa-60" value="" style="edgeStyle=orthogonalEdgeStyle;rounded=0;orthogonalLoop=1;jettySize=auto;html=1;" edge="1" parent="WIyWlLk6GJQsqaUBKTNV-1" source="2vWn9LsCLtXttcwdHyVa-55" target="2vWn9LsCLtXttcwdHyVa-59">
          <mxGeometry relative="1" as="geometry" />
        </mxCell>
        <mxCell id="2vWn9LsCLtXttcwdHyVa-55" value="check[i]" style="rhombus;whiteSpace=wrap;html=1;rounded=0;" vertex="1" parent="WIyWlLk6GJQsqaUBKTNV-1">
          <mxGeometry x="414" y="950" width="120" height="80" as="geometry" />
        </mxCell>
        <mxCell id="2vWn9LsCLtXttcwdHyVa-57" value="ok = 1" style="whiteSpace=wrap;html=1;rounded=0;" vertex="1" parent="WIyWlLk6GJQsqaUBKTNV-1">
          <mxGeometry x="414" y="840" width="120" height="60" as="geometry" />
        </mxCell>
        <mxCell id="2vWn9LsCLtXttcwdHyVa-75" value="" style="edgeStyle=orthogonalEdgeStyle;rounded=0;orthogonalLoop=1;jettySize=auto;html=1;" edge="1" parent="WIyWlLk6GJQsqaUBKTNV-1" source="2vWn9LsCLtXttcwdHyVa-59" target="2vWn9LsCLtXttcwdHyVa-74">
          <mxGeometry relative="1" as="geometry" />
        </mxCell>
        <mxCell id="2vWn9LsCLtXttcwdHyVa-85" value="" style="edgeStyle=orthogonalEdgeStyle;rounded=0;orthogonalLoop=1;jettySize=auto;html=1;" edge="1" parent="WIyWlLk6GJQsqaUBKTNV-1" source="2vWn9LsCLtXttcwdHyVa-59" target="2vWn9LsCLtXttcwdHyVa-34">
          <mxGeometry relative="1" as="geometry" />
        </mxCell>
        <mxCell id="2vWn9LsCLtXttcwdHyVa-59" value="i = PASSWORD.len()" style="rhombus;whiteSpace=wrap;html=1;rounded=0;" vertex="1" parent="WIyWlLk6GJQsqaUBKTNV-1">
          <mxGeometry x="600" y="950" width="120" height="80" as="geometry" />
        </mxCell>
        <mxCell id="2vWn9LsCLtXttcwdHyVa-64" value="" style="endArrow=none;html=1;rounded=0;exitX=1;exitY=0.5;exitDx=0;exitDy=0;exitPerimeter=0;" edge="1" parent="WIyWlLk6GJQsqaUBKTNV-1">
          <mxGeometry width="50" height="50" relative="1" as="geometry">
            <mxPoint x="534" y="870" as="sourcePoint" />
            <mxPoint x="564" y="990" as="targetPoint" />
            <Array as="points">
              <mxPoint x="564" y="870" />
            </Array>
          </mxGeometry>
        </mxCell>
        <mxCell id="2vWn9LsCLtXttcwdHyVa-77" value="" style="edgeStyle=orthogonalEdgeStyle;rounded=0;orthogonalLoop=1;jettySize=auto;html=1;" edge="1" parent="WIyWlLk6GJQsqaUBKTNV-1" source="2vWn9LsCLtXttcwdHyVa-74" target="2vWn9LsCLtXttcwdHyVa-76">
          <mxGeometry relative="1" as="geometry" />
        </mxCell>
        <mxCell id="2vWn9LsCLtXttcwdHyVa-74" value="Check" style="shape=parallelogram;perimeter=parallelogramPerimeter;whiteSpace=wrap;html=1;fixedSize=1;rounded=0;" vertex="1" parent="WIyWlLk6GJQsqaUBKTNV-1">
          <mxGeometry x="780" y="960" width="120" height="60" as="geometry" />
        </mxCell>
        <mxCell id="2vWn9LsCLtXttcwdHyVa-79" value="" style="rounded=0;orthogonalLoop=1;jettySize=auto;html=1;startArrow=none;startFill=0;endArrow=none;endFill=0;exitX=0.5;exitY=0;exitDx=0;exitDy=0;" edge="1" parent="WIyWlLk6GJQsqaUBKTNV-1" source="2vWn9LsCLtXttcwdHyVa-76">
          <mxGeometry relative="1" as="geometry">
            <mxPoint x="480" y="480" as="targetPoint" />
            <Array as="points">
              <mxPoint x="1014" y="480" />
            </Array>
          </mxGeometry>
        </mxCell>
        <mxCell id="2vWn9LsCLtXttcwdHyVa-81" value="" style="edgeStyle=orthogonalEdgeStyle;rounded=0;orthogonalLoop=1;jettySize=auto;html=1;" edge="1" parent="WIyWlLk6GJQsqaUBKTNV-1" source="2vWn9LsCLtXttcwdHyVa-76" target="2vWn9LsCLtXttcwdHyVa-80">
          <mxGeometry relative="1" as="geometry" />
        </mxCell>
        <mxCell id="2vWn9LsCLtXttcwdHyVa-76" value="ok = 0" style="rhombus;whiteSpace=wrap;html=1;rounded=0;" vertex="1" parent="WIyWlLk6GJQsqaUBKTNV-1">
          <mxGeometry x="974" y="950" width="80" height="80" as="geometry" />
        </mxCell>
        <mxCell id="2vWn9LsCLtXttcwdHyVa-83" value="" style="edgeStyle=orthogonalEdgeStyle;rounded=0;orthogonalLoop=1;jettySize=auto;html=1;" edge="1" parent="WIyWlLk6GJQsqaUBKTNV-1" source="2vWn9LsCLtXttcwdHyVa-80" target="2vWn9LsCLtXttcwdHyVa-82">
          <mxGeometry relative="1" as="geometry" />
        </mxCell>
        <mxCell id="2vWn9LsCLtXttcwdHyVa-80" value="Nhập đúng mật khẩu" style="shape=parallelogram;perimeter=parallelogramPerimeter;whiteSpace=wrap;html=1;fixedSize=1;rounded=0;" vertex="1" parent="WIyWlLk6GJQsqaUBKTNV-1">
          <mxGeometry x="1114" y="960" width="120" height="60" as="geometry" />
        </mxCell>
        <mxCell id="2vWn9LsCLtXttcwdHyVa-82" value="Kết thúc chương trình" style="ellipse;whiteSpace=wrap;html=1;rounded=0;" vertex="1" parent="WIyWlLk6GJQsqaUBKTNV-1">
          <mxGeometry x="1290" y="950" width="80" height="80" as="geometry" />
        </mxCell>
        <mxCell id="2vWn9LsCLtXttcwdHyVa-86" value="&lt;h1 style=&quot;margin-top: 0px;&quot;&gt;&lt;font style=&quot;font-size: 25px;&quot;&gt;Chương trình kiểm tra nhập mật khẩu&lt;/font&gt;&lt;/h1&gt;&lt;div&gt;&lt;font style=&quot;font-size: 25px;&quot;&gt;&lt;br&gt;&lt;/font&gt;&lt;/div&gt;&lt;div&gt;&lt;font style=&quot;font-size: 25px;&quot;&gt;- Đầu vào: Số lượng kí tự trong mật khẩu (Loại số hay chữ thì tùy chọn)&lt;/font&gt;&lt;/div&gt;" style="text;html=1;whiteSpace=wrap;overflow=hidden;rounded=0;" vertex="1" parent="WIyWlLk6GJQsqaUBKTNV-1">
          <mxGeometry x="1000" y="80" width="370" height="300" as="geometry" />
        </mxCell>
      </root>
    </mxGraphModel>
  </diagram>
</mxfile>
